<svg xmlns="http://www.w3.org/2000/svg" width="362.184" height="222.537" preserveAspectRatio="xMidYMid" version="1.0" viewBox="0 0 271.638 166.903" fill="red"><path d="M19.619 11.828c-1.2 6.6-2.6 13.8-3 15.8-.6 3-.5 3.8.9 4.2.9.3 15.4.8 32.3 1.2 16.9.3 33.3.9 36.4 1.3l5.6.6-37.8 52c-20.7 28.6-41.2 56.8-45.6 62.7-4.3 5.9-8.1 11.4-8.4 12.1-.4 1.2 5.4 1.5 34.8 2.1 19.4.4 47.9 1.1 63.3 1.6 15.3.5 28.1.7 28.4.4.4-.4-4.7-38.5-5.2-39-.2-.2-23.7 1.3-59.2 3.6-8.8.5-18.1 1-20.7 1h-4.7l10.2-13.3c5.6-7.3 14-18.3 18.6-24.4l8.5-11.1 7.8 3.9c4.4 2.2 8.3 3.7 8.8 3.4 1-.6 8.3-13.5 7.8-14-.1-.1-3.1-1.7-6.5-3.4-3.5-1.7-6.3-3.5-6.3-3.9 0-1.7 8.2-11.7 9.3-11.4.7.1 4.5 1.7 8.5 3.4s7.4 2.9 7.5 2.7c.2-.2 2.4-2.9 5-6s4.7-6 4.7-6.5-3.6-2.2-8-3.8c-4.4-1.5-8-3.1-8-3.5 0-.4 1.4-2.7 3.2-5l3.2-4.4 9.7.6 9.7.6 4-8.2c3.4-7.1 3.7-8.3 2.3-8.9-.9-.4-26.3-4.6-56.6-9.3-30.2-4.7-55.7-8.7-56.6-8.9-1.4-.3-2.1 1.7-3.9 11.8zm57.3 127.8c5 2.6 6.1 7.7 2.7 12-4.8 6.2-15 2.3-15-5.8 0-2.3 5.5-7.4 8-7.4 1.2 0 3.1.5 4.3 1.2zm-25.5 4c1.1 2.3 1.1 3.3 0 5.5-1.1 2.3-2.1 2.9-5.3 3.1-4.4.4-6.5-1.4-6.5-5.7 0-6.3 9.1-8.5 11.8-2.9zm55.2-1.2c2.7 2.7 2.6 7.5-.2 9.4-5 3.5-10.2 1-10.2-4.9 0-6.1 6.1-8.8 10.4-4.5zM157.919 3.928c-3.8 1.6-3.9 1.8-1.6 7.6 2.5 6.4 2.3 32.9-.5 56.9-4.8 42-3.7 59.2 4.6 75.5 5 9.9 15.9 17.9 28.5 21.1 9.7 2.5 32.4 2.5 41.5 0 22.3-6.1 34.5-19.8 39.7-44.5 1.9-9.3 2-23.9.4-69.4l-1.3-34.7-2.5-.1c-1.4 0-10.2-.8-19.6-1.8-9.3-1-17.4-1.4-17.8-1.1-.4.4-.5 3-.1 5.8l.6 5.1 5.7.6c8.1.9 8.1.9 8.1 6.1v4.7l-7-.6-7-.6v11.9h14v11h-6.5c-7.6 0-8.1.6-7 7.6l.6 4.6 6.7-.4 6.7-.3.5 5.2c.6 6 .3 6.3-6.8 6.3-2.6 0-5.2.4-5.8.8-.8.5-1.3 7.1-1.6 20.2-.4 15.4-.9 20.6-2.3 24.5-3.1 8.5-6.4 12.7-13.4 16.2-5.5 2.9-7.2 3.3-14.1 3.3-9.4 0-12.3-1-17.3-5.8-7.8-7.6-9.7-18.7-9.7-59.2 0-28.8-1-43.7-4-57.1-1.9-8.8-6.1-20.1-7.6-20.6-.5-.1-2.4.4-4.1 1.2z"/></svg>