<?xml version="1.0" standalone="no"?>
<!DOCTYPE svg PUBLIC "-//W3C//DTD SVG 20010904//EN"
 "http://www.w3.org/TR/2001/REC-SVG-20010904/DTD/svg10.dtd">
<svg version="1.0" xmlns="http://www.w3.org/2000/svg"
 width="282.000000pt" height="414.000000pt" viewBox="0 0 282.000000 414.000000"
 preserveAspectRatio="xMidYMid meet">

<g transform="translate(0.000000,414.000000) scale(0.100000,-0.100000)"
fill="#000000" stroke="none">
<path d="M47 4103 c-4 -3 -7 -48 -7 -100 l0 -93 420 0 c231 0 420 -2 420 -5 0
-4 -305 -461 -717 -1074 l-124 -184 3 -61 3 -61 618 -3 617 -2 0 100 0 100
-395 0 c-217 0 -395 2 -395 5 0 3 93 149 208 323 114 174 248 379 297 455 50
75 134 203 187 285 l97 147 1 88 0 87 -613 0 c-338 0 -617 -3 -620 -7z"/>
<path d="M1510 3488 c0 -488 3 -634 14 -673 41 -156 145 -257 291 -284 74 -14
574 -14 646 -1 135 26 220 101 284 250 19 43 20 78 23 688 l3 642 -178 -2
-178 -3 -5 -620 c-5 -658 -4 -640 -53 -705 -41 -55 -60 -60 -226 -60 l-154 0
-42 43 c-76 75 -75 67 -75 749 l0 598 -175 0 -175 0 0 -622z"/>
<path d="M187 2264 c-4 -4 -7 -92 -7 -196 l0 -188 25 0 25 0 0 162 c0 89 4
158 8 153 5 -6 17 -32 27 -60 10 -27 36 -96 57 -153 37 -97 42 -103 66 -100
23 3 31 17 83 151 31 81 59 151 63 154 3 4 6 -64 6 -150 l0 -157 25 0 25 0 0
196 0 195 -37 -3 -37 -3 -53 -140 c-29 -77 -58 -151 -64 -165 -10 -22 -16 -9
-72 140 l-62 165 -35 3 c-20 2 -39 0 -43 -4z"/>
<path d="M796 2243 c-11 -23 -80 -183 -143 -330 -13 -33 -13 -33 16 -33 27 0
32 6 53 60 l23 60 91 0 91 0 26 -60 c24 -54 29 -60 56 -60 28 0 30 2 22 23
-14 35 -156 340 -164 355 -15 23 -56 14 -71 -15z m62 -78 c11 -27 28 -67 36
-87 l16 -38 -73 0 -74 0 36 90 c19 49 36 88 37 87 1 -1 11 -24 22 -52z"/>
<path d="M1143 2250 c-38 -22 -53 -48 -53 -87 1 -54 42 -82 160 -109 106 -24
134 -60 85 -109 -49 -49 -183 -25 -204 37 -9 25 -14 28 -33 23 -34 -11 -35
-13 -12 -53 29 -49 77 -72 152 -73 112 -2 172 37 172 111 0 58 -41 88 -155
115 -39 9 -80 22 -92 31 -50 32 -13 84 64 91 55 4 93 -12 108 -45 11 -25 65
-32 65 -8 0 20 -38 65 -70 81 -43 22 -147 20 -187 -5z"/>
<path d="M1460 2245 c0 -24 2 -25 70 -25 l70 0 0 -170 0 -170 30 0 30 0 0 170
0 170 70 0 c68 0 70 1 70 25 l0 25 -170 0 -170 0 0 -25z"/>
<path d="M1867 2263 c-4 -3 -7 -91 -7 -195 l0 -188 160 0 c153 0 160 1 160 20
0 19 -7 20 -130 20 l-130 0 0 70 0 70 120 0 c113 0 120 1 120 20 0 19 -7 20
-120 20 l-120 0 0 60 0 60 125 0 125 0 0 25 0 25 -148 0 c-82 0 -152 -3 -155
-7z"/>
<path d="M2270 2076 l0 -196 25 0 c25 0 25 1 25 85 l0 85 61 0 c57 0 62 -2 95
-37 19 -21 48 -59 65 -85 27 -42 35 -48 66 -48 l34 0 -18 31 c-10 17 -42 57
-71 89 l-52 58 30 7 c36 8 80 58 80 91 0 37 -25 78 -57 94 -18 9 -75 15 -155
18 l-128 4 0 -196z m262 127 c24 -21 23 -65 -2 -88 -15 -13 -39 -17 -112 -19
l-93 -1 -3 63 -3 62 97 0 c77 0 101 -4 116 -17z"/>
<path d="M270 1586 c-12 -66 -26 -138 -30 -158 -6 -30 -5 -38 9 -42 9 -3 154
-8 323 -12 169 -3 333 -9 364 -13 l56 -6 -378 -520 c-207 -286 -412 -568 -456
-627 -43 -59 -81 -114 -84 -121 -4 -12 54 -15 348 -21 194 -4 479 -11 633 -16
153 -5 281 -7 284 -4 4 4 -47 385 -52 390 -2 2 -237 -13 -592 -36 -88 -5 -181
-10 -207 -10 l-47 0 102 133 c56 73 140 183 186 244 l85 111 78 -39 c44 -22
83 -37 88 -34 10 6 83 135 78 140 -1 1 -31 17 -65 34 -35 17 -63 35 -63 39 0
17 82 117 93 114 7 -1 45 -17 85 -34 40 -17 74 -29 75 -27 2 2 24 29 50 60 26
31 47 60 47 65 0 5 -36 22 -80 38 -44 15 -80 31 -80 35 0 4 14 27 32 50 l32
44 97 -6 97 -6 40 82 c34 71 37 83 23 89 -9 4 -263 46 -566 93 -302 47 -557
87 -566 89 -14 3 -21 -17 -39 -118z m573 -1278 c50 -26 61 -77 27 -120 -48
-62 -150 -23 -150 58 0 23 55 74 80 74 12 0 31 -5 43 -12z m-255 -40 c11 -23
11 -33 0 -55 -11 -23 -21 -29 -53 -31 -44 -4 -65 14 -65 57 0 63 91 85 118 29z
m552 12 c27 -27 26 -75 -2 -94 -50 -35 -102 -10 -102 49 0 61 61 88 104 45z"/>
<path d="M1653 1665 c-38 -16 -39 -18 -16 -76 25 -64 23 -329 -5 -569 -48
-420 -37 -592 46 -755 50 -99 159 -179 285 -211 97 -25 324 -25 415 0 223 61
345 198 397 445 19 93 20 239 4 694 l-13 347 -25 1 c-14 0 -102 8 -196 18 -93
10 -174 14 -178 11 -4 -4 -5 -30 -1 -58 l6 -51 57 -6 c81 -9 81 -9 81 -61 l0
-47 -70 6 -70 6 0 -60 0 -59 70 0 70 0 0 -55 0 -55 -65 0 c-76 0 -81 -6 -70
-76 l6 -46 67 4 67 3 5 -52 c6 -60 3 -63 -68 -63 -26 0 -52 -4 -58 -8 -8 -5
-13 -71 -16 -202 -4 -154 -9 -206 -23 -245 -31 -85 -64 -127 -134 -162 -55
-29 -72 -33 -141 -33 -94 0 -123 10 -173 58 -78 76 -97 187 -97 592 0 288 -10
437 -40 571 -19 88 -61 201 -76 206 -5 1 -24 -4 -41 -12z"/>
</g>
</svg>
